<?xml version="1.0" encoding="UTF-8"?><svg xmlns="http://www.w3.org/2000/svg" xmlns:xlink="http://www.w3.org/1999/xlink" viewBox="0 0 801.61 186.76"><defs><filter id="drop-shadow-1" filterUnits="userSpaceOnUse"><feOffset dx="-1" dy="1"/><feGaussianBlur result="blur" stdDeviation="2"/><feFlood flood-color="#231f20" flood-opacity=".25"/><feComposite in2="blur" operator="in"/><feComposite in="SourceGraphic"/></filter><filter id="drop-shadow-2" filterUnits="userSpaceOnUse"><feOffset dx="-1" dy="1"/><feGaussianBlur result="blur-2" stdDeviation="2"/><feFlood flood-color="#231f20" flood-opacity=".25"/><feComposite in2="blur-2" operator="in"/><feComposite in="SourceGraphic"/></filter><filter id="drop-shadow-3" filterUnits="userSpaceOnUse"><feOffset dx="-1" dy="1"/><feGaussianBlur result="blur-3" stdDeviation="2"/><feFlood flood-color="#231f20" flood-opacity=".25"/><feComposite in2="blur-3" operator="in"/><feComposite in="SourceGraphic"/></filter><filter id="drop-shadow-4" filterUnits="userSpaceOnUse"><feOffset dx="-1" dy="1"/><feGaussianBlur result="blur-4" stdDeviation="2"/><feFlood flood-color="#231f20" flood-opacity=".25"/><feComposite in2="blur-4" operator="in"/><feComposite in="SourceGraphic"/></filter><filter id="drop-shadow-5" filterUnits="userSpaceOnUse"><feOffset dx="-1" dy="1"/><feGaussianBlur result="blur-5" stdDeviation="2"/><feFlood flood-color="#231f20" flood-opacity=".25"/><feComposite in2="blur-5" operator="in"/><feComposite in="SourceGraphic"/></filter><filter id="drop-shadow-6" filterUnits="userSpaceOnUse"><feOffset dx="-1" dy="1"/><feGaussianBlur result="blur-6" stdDeviation="2"/><feFlood flood-color="#231f20" flood-opacity=".25"/><feComposite in2="blur-6" operator="in"/><feComposite in="SourceGraphic"/></filter><filter id="drop-shadow-7" filterUnits="userSpaceOnUse"><feOffset dx="-1" dy="1"/><feGaussianBlur result="blur-7" stdDeviation="2"/><feFlood flood-color="#231f20" flood-opacity=".25"/><feComposite in2="blur-7" operator="in"/><feComposite in="SourceGraphic"/></filter><filter id="drop-shadow-8" filterUnits="userSpaceOnUse"><feOffset dx="-1" dy="1"/><feGaussianBlur result="blur-8" stdDeviation="2"/><feFlood flood-color="#231f20" flood-opacity=".25"/><feComposite in2="blur-8" operator="in"/><feComposite in="SourceGraphic"/></filter><linearGradient id="New_Gradient_Swatch_6" x1="513.36" y1="59.97" x2="440.81" y2="159.47" gradientTransform="translate(28.98 302.85) rotate(-36.1)" gradientUnits="userSpaceOnUse"><stop offset="0" stop-color="#e87384"/><stop offset=".23" stop-color="#df657f"/><stop offset=".67" stop-color="#c94372"/><stop offset="1" stop-color="#b62467"/></linearGradient><filter id="drop-shadow-9" filterUnits="userSpaceOnUse"><feOffset dx="-1" dy="1"/><feGaussianBlur result="blur-9" stdDeviation="2"/><feFlood flood-color="#231f20" flood-opacity=".25"/><feComposite in2="blur-9" operator="in"/><feComposite in="SourceGraphic"/></filter><linearGradient id="New_Gradient_Swatch_6-2" x1="479.45" y1="38.73" x2="479.45" y2="56.07" gradientTransform="matrix(1, 0, 0, 1, 0, 0)" xlink:href="#New_Gradient_Swatch_6"/><filter id="drop-shadow-10" filterUnits="userSpaceOnUse"><feOffset dx="-1" dy="1"/><feGaussianBlur result="blur-10" stdDeviation="2"/><feFlood flood-color="#231f20" flood-opacity=".25"/><feComposite in2="blur-10" operator="in"/><feComposite in="SourceGraphic"/></filter><linearGradient id="New_Gradient_Swatch_6-3" x1="531.45" y1="76.73" x2="531.45" y2="94.07" gradientTransform="matrix(1, 0, 0, 1, 0, 0)" xlink:href="#New_Gradient_Swatch_6"/><filter id="drop-shadow-11" filterUnits="userSpaceOnUse"><feOffset dx="-1" dy="1"/><feGaussianBlur result="blur-11" stdDeviation="2"/><feFlood flood-color="#231f20" flood-opacity=".25"/><feComposite in2="blur-11" operator="in"/><feComposite in="SourceGraphic"/></filter><linearGradient id="New_Gradient_Swatch_6-4" x1="511.45" y1="138.84" x2="511.45" y2="156.18" gradientTransform="matrix(1, 0, 0, 1, 0, 0)" xlink:href="#New_Gradient_Swatch_6"/><filter id="drop-shadow-12" filterUnits="userSpaceOnUse"><feOffset dx="-1" dy="1"/><feGaussianBlur result="blur-12" stdDeviation="2"/><feFlood flood-color="#231f20" flood-opacity=".25"/><feComposite in2="blur-12" operator="in"/><feComposite in="SourceGraphic"/></filter><linearGradient id="New_Gradient_Swatch_6-5" x1="445.12" y1="138.84" x2="445.12" y2="156.18" gradientTransform="matrix(1, 0, 0, 1, 0, 0)" xlink:href="#New_Gradient_Swatch_6"/><filter id="drop-shadow-13" filterUnits="userSpaceOnUse"><feOffset dx="-1" dy="1"/><feGaussianBlur result="blur-13" stdDeviation="2"/><feFlood flood-color="#231f20" flood-opacity=".25"/><feComposite in2="blur-13" operator="in"/><feComposite in="SourceGraphic"/></filter><linearGradient id="New_Gradient_Swatch_6-6" x1="428.79" y1="76.73" x2="428.79" y2="94.07" gradientTransform="matrix(1, 0, 0, 1, 0, 0)" xlink:href="#New_Gradient_Swatch_6"/><filter id="drop-shadow-14" filterUnits="userSpaceOnUse"><feOffset dx="-1" dy="1"/><feGaussianBlur result="blur-14" stdDeviation="2"/><feFlood flood-color="#231f20" flood-opacity=".25"/><feComposite in2="blur-14" operator="in"/><feComposite in="SourceGraphic"/></filter><linearGradient id="New_Gradient_Swatch_6-7" x1="479.34" y1="5" x2="479.34" y2="171.79" gradientTransform="matrix(1, 0, 0, 1, 0, 0)" xlink:href="#New_Gradient_Swatch_6"/><filter id="drop-shadow-15" filterUnits="userSpaceOnUse"><feOffset dx="-1" dy="1"/><feGaussianBlur result="blur-15" stdDeviation="2"/><feFlood flood-color="#231f20" flood-opacity=".25"/><feComposite in2="blur-15" operator="in"/><feComposite in="SourceGraphic"/></filter><linearGradient id="New_Gradient_Swatch_5" x1="758.91" y1="71.73" x2="758.91" y2="148.37" gradientUnits="userSpaceOnUse"><stop offset="0" stop-color="#43afe3"/><stop offset="1" stop-color="#1b75bb"/></linearGradient><filter id="drop-shadow-16" filterUnits="userSpaceOnUse"><feOffset dx="-1" dy="1"/><feGaussianBlur result="blur-16" stdDeviation="2"/><feFlood flood-color="#231f20" flood-opacity=".25"/><feComposite in2="blur-16" operator="in"/><feComposite in="SourceGraphic"/></filter><linearGradient id="New_Gradient_Swatch_5-2" x1="683.22" y1="71.88" x2="683.22" y2="148.51" xlink:href="#New_Gradient_Swatch_5"/><filter id="drop-shadow-17" filterUnits="userSpaceOnUse"><feOffset dx="-1" dy="1"/><feGaussianBlur result="blur-17" stdDeviation="2"/><feFlood flood-color="#231f20" flood-opacity=".25"/><feComposite in2="blur-17" operator="in"/><feComposite in="SourceGraphic"/></filter><linearGradient id="New_Gradient_Swatch_5-3" x1="616.5" y1="72.03" x2="616.5" y2="146.59" xlink:href="#New_Gradient_Swatch_5"/><filter id="drop-shadow-18" filterUnits="userSpaceOnUse"><feOffset dx="-1" dy="1"/><feGaussianBlur result="blur-18" stdDeviation="2"/><feFlood flood-color="#231f20" flood-opacity=".25"/><feComposite in2="blur-18" operator="in"/><feComposite in="SourceGraphic"/></filter><linearGradient id="New_Gradient_Swatch_5-4" x1="45.91" y1="71.28" x2="45.91" y2="179.58" xlink:href="#New_Gradient_Swatch_5"/><filter id="drop-shadow-19" filterUnits="userSpaceOnUse"><feOffset dx="-1" dy="1"/><feGaussianBlur result="blur-19" stdDeviation="2"/><feFlood flood-color="#231f20" flood-opacity=".25"/><feComposite in2="blur-19" operator="in"/><feComposite in="SourceGraphic"/></filter><linearGradient id="New_Gradient_Swatch_5-5" x1="351.19" y1="40.66" x2="351.19" y2="145.7" xlink:href="#New_Gradient_Swatch_5"/><filter id="drop-shadow-20" filterUnits="userSpaceOnUse"><feOffset dx="-1" dy="1"/><feGaussianBlur result="blur-20" stdDeviation="2"/><feFlood flood-color="#231f20" flood-opacity=".25"/><feComposite in2="blur-20" operator="in"/><feComposite in="SourceGraphic"/></filter><linearGradient id="New_Gradient_Swatch_5-6" x1="284.91" y1="42.29" x2="284.91" y2="145.7" xlink:href="#New_Gradient_Swatch_5"/><filter id="drop-shadow-21" filterUnits="userSpaceOnUse"><feOffset dx="-1" dy="1"/><feGaussianBlur result="blur-21" stdDeviation="2"/><feFlood flood-color="#231f20" flood-opacity=".25"/><feComposite in2="blur-21" operator="in"/><feComposite in="SourceGraphic"/></filter><linearGradient id="New_Gradient_Swatch_5-7" x1="214.56" y1="71.14" x2="214.56" y2="145.7" xlink:href="#New_Gradient_Swatch_5"/><filter id="drop-shadow-22" filterUnits="userSpaceOnUse"><feOffset dx="-1" dy="1"/><feGaussianBlur result="blur-22" stdDeviation="2"/><feFlood flood-color="#231f20" flood-opacity=".25"/><feComposite in2="blur-22" operator="in"/><feComposite in="SourceGraphic"/></filter><linearGradient id="New_Gradient_Swatch_5-8" x1="134.13" y1="70.84" x2="134.13" y2="147.48" xlink:href="#New_Gradient_Swatch_5"/><filter id="drop-shadow-23" filterUnits="userSpaceOnUse"><feOffset dx="-1" dy="1"/><feGaussianBlur result="blur-23" stdDeviation="2"/><feFlood flood-color="#231f20" flood-opacity=".25"/><feComposite in2="blur-23" operator="in"/><feComposite in="SourceGraphic"/></filter></defs><g id="impresions"><g><path d="M136.11,133.28c-13.32,0-22.48-7.25-23.81-18.35h59.18c2.8-29.73-13.18-44.08-36.7-44.08s-38.32,15.83-38.32,38.03c0,23.37,15.38,38.61,39.35,38.61,9.84,0,20.69-3.17,28.31-9.52,1.08-.91,7.42-6.5,7.66-12.16h-14.85c-4.44,5.02-13.43,7.48-20.83,7.48Zm-.88-48.82c12.27,0,20.7,6.06,21.59,17.6h-44.22c2.36-11.55,11.53-17.6,22.63-17.6Z" fill="#929497" filter="url(#drop-shadow-1)"/><path d="M223.87,71.14c7.12,0,13.92,2.51,18.06,6.22l-6.95,13.32c-3.71-2.96-7.26-4.43-12.87-4.43-10.5,0-19.67,6.5-19.67,19.96v39.5h-15.24V72.77h14.2l1.04,9.62c5.32-9.32,13.6-11.25,21.44-11.25Z" fill="#929497" filter="url(#drop-shadow-2)"/><polygon points="281.73 107.09 317.52 144.66 317.52 145.7 298.89 145.7 267.66 111.97 267.66 145.7 252.29 145.7 252.29 42.29 267.66 42.29 267.66 102.65 294.75 72.77 313.24 72.77 313.24 73.65 281.73 107.09" fill="#929497" filter="url(#drop-shadow-3)"/><path d="M362.35,40.66c6.22,0,12.43,2.08,17.9,5.78l-5.93,11.39c-3.83-2.51-7.24-3.85-11.09-3.85-6.96,0-11.83,4.59-11.83,14.35v5.32h22.04v13.47h-22.04v58.58h-15.39v-58.58h-13.9v-13.47h13.9v-5.32c0-18.2,11.39-27.67,26.33-27.67Z" fill="#929497" filter="url(#drop-shadow-4)"/><path d="M47.98,71.28c-9.76,0-20.13,4.44-25.74,13.32l-.89-11.83H7v106.82h15.23v-44.53c5.48,9.02,16.87,12.28,25.74,12.28,22.63,0,36.84-15.98,36.84-38.03s-15.09-37.87-36.84-38.02Zm-1.48,61.25c-13.32,0-22.93-10.21-22.93-23.23s8.88-23.22,22.93-23.22,23.08,9.47,23.08,23.22-9.76,23.23-23.08,23.23Z" fill="#929497" filter="url(#drop-shadow-5)"/><path d="M625.82,72.03c7.1,0,13.9,2.51,18.04,6.22l-6.95,13.32c-3.7-2.96-7.25-4.43-12.87-4.43-10.5,0-19.68,6.5-19.68,19.96v39.5h-15.23V73.66h14.2l1.03,9.62c5.32-9.32,13.61-11.25,21.46-11.25Z" fill="#929497" filter="url(#drop-shadow-6)"/><path d="M662.96,110.19c0,15.39,10.65,23.53,23.23,23.53,6.21,0,12.53-2.16,17.27-7.03h15.25c-1.2,6.4-6.59,11.75-8.28,13.48-7.25,5.81-15.2,8.34-24.24,8.34-21.01,0-38.47-13.16-38.47-38.32s17.31-38.31,38.47-38.31c9.33,0,17.68,2.26,24.63,9.22,2.47,2.47,6.14,6.43,7.89,11.55h-16.22c-4.58-4.43-10.39-6.27-16.16-6.27-13.17,0-23.37,9.32-23.37,23.82Z" fill="#929497" filter="url(#drop-shadow-7)"/><path d="M781.72,126.69c-4.44,5.02-13.43,7.48-20.83,7.48-13.3,0-22.48-7.25-23.82-18.35h59.18c2.81-29.73-13.17-44.08-36.69-44.08s-38.32,15.83-38.32,38.03c0,23.37,15.38,38.61,39.35,38.61,9.83,0,20.7-3.17,28.3-9.52,1.09-.91,7.42-6.5,7.67-12.16h-14.85Zm-21.71-41.34c12.28,0,20.71,6.06,21.6,17.6h-44.24c2.37-11.55,11.54-17.6,22.64-17.6Z" fill="#929497" filter="url(#drop-shadow-8)"/></g><g><path d="M479.34,5c-53.26,0-96.58,43.33-96.58,96.59,0,26.83,10.75,51.77,30.26,70.21l5.67-6,6.69-7.08c-15.88-15-24.62-35.29-24.62-57.13,0-43.33,35.25-78.59,78.58-78.59s78.59,35.25,78.59,78.59c0,21.84-8.74,42.12-24.62,57.13l6.01,6.35,6.36,6.73c19.51-18.44,30.26-43.37,30.26-70.21,0-53.26-43.33-96.59-96.59-96.59Z" fill="#929497"/><circle cx="428.79" cy="85.4" r="8.67" fill="#929497"/><circle cx="445.12" cy="147.51" r="8.67" fill="#929497"/><circle cx="511.45" cy="147.51" r="8.67" fill="#929497"/><circle cx="531.45" cy="85.4" r="8.67" fill="#929497"/><circle cx="479.45" cy="47.4" r="8.67" fill="#929497"/><path d="M438.9,54.31c-1.71-5.23,.54-6.87,4.99-3.64l27.03,19.57c4.46,3.23,11.74,3.21,16.18-.03l26.96-19.66c4.44-3.24,6.7-1.61,5.01,3.62l-10.26,31.75c-1.69,5.23,.57,12.15,5.03,15.38l27.03,19.57c4.46,3.23,3.6,5.87-1.9,5.88l-33.37,.06c-5.5,0-11.38,4.3-13.07,9.53l-10.26,31.75c-1.69,5.23-4.47,5.24-6.18,.01l-10.36-31.72c-1.71-5.23-7.61-9.5-13.11-9.49l-33.37,.06c-5.5,0-6.36-2.63-1.92-5.88l26.96-19.66c4.44-3.24,6.68-10.17,4.97-15.4l-10.36-31.72Z" fill="#929497"/></g></g><g id="star"><path d="M438.9,54.31c-1.71-5.23,.54-6.87,4.99-3.64l27.03,19.57c4.46,3.23,11.74,3.21,16.18-.03l26.96-19.66c4.44-3.24,6.7-1.61,5.01,3.62l-10.26,31.75c-1.69,5.23,.57,12.15,5.03,15.38l27.03,19.57c4.46,3.23,3.6,5.87-1.9,5.88l-33.37,.06c-5.5,0-11.38,4.3-13.07,9.53l-10.26,31.75c-1.69,5.23-4.47,5.24-6.18,.01l-10.36-31.72c-1.71-5.23-7.61-9.5-13.11-9.49l-33.37,.06c-5.5,0-6.36-2.63-1.92-5.88l26.96-19.66c4.44-3.24,6.68-10.17,4.97-15.4l-10.36-31.72Z" fill="url(#New_Gradient_Swatch_6)" filter="url(#drop-shadow-9)"/></g><g id="top"><circle cx="479.45" cy="47.4" r="8.67" fill="url(#New_Gradient_Swatch_6-2)" filter="url(#drop-shadow-10)"/></g><g id="top_rght"><circle cx="531.45" cy="85.4" r="8.67" fill="url(#New_Gradient_Swatch_6-3)" filter="url(#drop-shadow-11)"/></g><g id="dwn_rght"><circle cx="511.45" cy="147.51" r="8.67" fill="url(#New_Gradient_Swatch_6-4)" filter="url(#drop-shadow-12)"/></g><g id="dwn_lft"><circle cx="445.12" cy="147.51" r="8.67" fill="url(#New_Gradient_Swatch_6-5)" filter="url(#drop-shadow-13)"/></g><g id="top_lft"><circle cx="428.79" cy="85.4" r="8.67" fill="url(#New_Gradient_Swatch_6-6)" filter="url(#drop-shadow-14)"/></g><g id="arc"><path d="M479.34,5c-53.26,0-96.58,43.33-96.58,96.59,0,26.83,10.75,51.77,30.26,70.21l5.67-6,6.69-7.08c-15.88-15-24.62-35.29-24.62-57.13,0-43.33,35.25-78.59,78.58-78.59s78.59,35.25,78.59,78.59c0,21.84-8.74,42.12-24.62,57.13l6.01,6.35,6.36,6.73c19.51-18.44,30.26-43.37,30.26-70.21,0-53.26-43.33-96.59-96.59-96.59Z" fill="url(#New_Gradient_Swatch_6-7)" filter="url(#drop-shadow-15)"/></g><g id="e_hind"><path d="M781.72,126.69c-4.44,5.02-13.43,7.48-20.83,7.48-13.3,0-22.48-7.25-23.82-18.35h59.18c2.81-29.73-13.17-44.08-36.69-44.08s-38.32,15.83-38.32,38.03c0,23.37,15.38,38.61,39.35,38.61,9.83,0,20.7-3.17,28.3-9.52,1.09-.91,7.42-6.5,7.67-12.16h-14.85Zm-21.71-41.34c12.28,0,20.71,6.06,21.6,17.6h-44.24c2.37-11.55,11.54-17.6,22.64-17.6Z" fill="url(#New_Gradient_Swatch_5)" filter="url(#drop-shadow-16)"/></g><g id="c_hind"><path d="M662.96,110.19c0,15.39,10.65,23.53,23.23,23.53,6.21,0,12.53-2.16,17.27-7.03h15.25c-1.2,6.4-6.59,11.75-8.28,13.48-7.25,5.81-15.2,8.34-24.24,8.34-21.01,0-38.47-13.16-38.47-38.32s17.31-38.31,38.47-38.31c9.33,0,17.68,2.26,24.63,9.22,2.47,2.47,6.14,6.43,7.89,11.55h-16.22c-4.58-4.43-10.39-6.27-16.16-6.27-13.17,0-23.37,9.32-23.37,23.82Z" fill="url(#New_Gradient_Swatch_5-2)" filter="url(#drop-shadow-17)"/></g><g id="r_hind"><path d="M625.82,72.03c7.1,0,13.9,2.51,18.04,6.22l-6.95,13.32c-3.7-2.96-7.25-4.43-12.87-4.43-10.5,0-19.68,6.5-19.68,19.96v39.5h-15.23V73.66h14.2l1.03,9.62c5.32-9.32,13.61-11.25,21.46-11.25Z" fill="url(#New_Gradient_Swatch_5-3)" filter="url(#drop-shadow-18)"/></g><g id="p_frnt"><path d="M47.98,71.28c-9.76,0-20.13,4.44-25.74,13.32l-.89-11.83H7v106.82h15.23v-44.53c5.48,9.02,16.87,12.28,25.74,12.28,22.63,0,36.84-15.98,36.84-38.03s-15.09-37.87-36.84-38.02Zm-1.48,61.25c-13.32,0-22.93-10.21-22.93-23.23s8.88-23.22,22.93-23.22,23.08,9.47,23.08,23.22-9.76,23.23-23.08,23.23Z" fill="url(#New_Gradient_Swatch_5-4)" filter="url(#drop-shadow-19)"/></g><g id="f_frnt"><path d="M362.35,40.66c6.22,0,12.43,2.08,17.9,5.78l-5.93,11.39c-3.83-2.51-7.24-3.85-11.09-3.85-6.96,0-11.83,4.59-11.83,14.35v5.32h22.04v13.47h-22.04v58.58h-15.39v-58.58h-13.9v-13.47h13.9v-5.32c0-18.2,11.39-27.67,26.33-27.67Z" fill="url(#New_Gradient_Swatch_5-5)" filter="url(#drop-shadow-20)"/></g><g id="k_frnt"><polygon points="281.73 107.09 317.52 144.66 317.52 145.7 298.89 145.7 267.66 111.97 267.66 145.7 252.29 145.7 252.29 42.29 267.66 42.29 267.66 102.65 294.75 72.77 313.24 72.77 313.24 73.65 281.73 107.09" fill="url(#New_Gradient_Swatch_5-6)" filter="url(#drop-shadow-21)"/></g><g id="r_frnt"><path d="M223.87,71.14c7.12,0,13.92,2.51,18.06,6.22l-6.95,13.32c-3.71-2.96-7.26-4.43-12.87-4.43-10.5,0-19.67,6.5-19.67,19.96v39.5h-15.24V72.77h14.2l1.04,9.62c5.32-9.32,13.6-11.25,21.44-11.25Z" fill="url(#New_Gradient_Swatch_5-7)" filter="url(#drop-shadow-22)"/></g><g id="e_frnt"><path d="M136.11,133.28c-13.32,0-22.48-7.25-23.81-18.35h59.18c2.8-29.73-13.18-44.08-36.7-44.08s-38.32,15.83-38.32,38.03c0,23.37,15.38,38.61,39.35,38.61,9.84,0,20.69-3.17,28.31-9.52,1.08-.91,7.42-6.5,7.66-12.16h-14.85c-4.44,5.02-13.43,7.48-20.83,7.48Zm-.88-48.82c12.27,0,20.7,6.06,21.59,17.6h-44.22c2.36-11.55,11.53-17.6,22.63-17.6Z" fill="url(#New_Gradient_Swatch_5-8)" filter="url(#drop-shadow-23)"/></g></svg>