<svg width="70" height="70" viewBox="0 0 70 70" fill="none" xmlns="http://www.w3.org/2000/svg">
<g clip-path="url(#clip0_87_1792)">
<path d="M9.8446 55.0736C9.83913 52.9474 8.19303 51.2723 6.09987 51.2669C3.9069 51.26 2.18698 52.9802 2.19928 55.1694C2.21022 57.1739 4.02448 58.9378 6.05749 58.9187C8.1821 58.8996 9.85007 57.2067 9.8446 55.0736Z" fill="black"/>
<path d="M70.0006 59.1978C68.5965 61.6085 64.6781 62.0378 63.2152 59.8514C63.9877 59.5 64.659 58.9749 65.605 59.2292C66.2927 59.4138 67.0078 59.4904 67.5984 58.9284C68.0304 58.5168 67.9894 58.1805 67.4371 57.9398C67.1308 57.8058 66.7822 57.7689 66.4513 57.695C65.8552 57.5624 65.2304 57.5063 64.6644 57.293C62.8666 56.6121 62.5398 54.4571 64.0191 53.2306C65.3371 52.138 67.947 52.2679 69.1365 53.489C69.2267 53.5806 69.2855 53.7037 69.4195 53.9019C68.6074 54.1535 67.9621 54.6294 67.0543 54.3723C66.5812 54.2383 65.9974 54.3942 65.4916 54.5282C65.3261 54.572 65.1498 54.9699 65.1716 55.1873C65.1867 55.3391 65.5134 55.5264 65.7295 55.5756C66.1697 55.6782 66.6277 55.7137 67.0789 55.752C68.4666 55.8682 69.5138 56.4521 69.9992 57.8304C70.0006 58.2857 70.0006 58.7411 70.0006 59.1978Z" fill="black"/>
<path d="M42.8744 21.2189C39.2965 18.3583 35.4615 17.5816 31.2629 18.9053C28.4533 19.7913 26.2863 21.5662 24.8152 24.0944C22.9053 27.3775 22.5184 30.8862 23.7502 34.4961C24.9752 38.0854 27.3965 40.5727 31.1467 41.9565C30.8418 42.0358 30.7119 42.0987 30.582 42.0987C27.5072 42.1028 24.4324 42.1041 21.3576 42.0932C21.065 42.0918 20.7697 42.0289 20.4812 41.9701C19.5557 41.7801 19.0006 41.1347 19.0006 40.2035C18.9992 30.476 18.9992 20.7485 19.0129 11.021C19.0143 9.54284 19.8318 8.74977 21.3316 8.74703C28.21 8.73746 35.0896 8.74703 41.968 8.73609C42.523 8.73473 42.7978 8.87283 42.8019 9.49772C42.8266 13.0939 42.884 16.6901 42.9264 20.2877C42.9277 20.5311 42.899 20.7758 42.8744 21.2189Z" fill="#231F20"/>
<path d="M35.106 22.537C39.0407 22.3374 42.8771 25.7312 42.9181 30.3543C42.9564 34.641 39.3388 38.0991 34.9816 38.1702C31.0003 38.2358 27.0792 34.6109 27.1735 30.1629C27.2556 26.2918 30.7405 22.254 35.106 22.537Z" fill="#0192EE"/>
<path d="M39.1406 42.0482C40.14 41.5108 41.0396 41.1279 41.8312 40.5865C45.1686 38.3043 46.9705 35.1211 47.1633 31.0764C47.2631 28.9856 47.2932 26.8908 47.3 24.7987C47.3178 19.7709 47.3027 14.7417 47.3041 9.71387C47.3041 8.76764 47.3314 8.7444 48.2516 8.7403C48.7984 8.73756 49.3453 8.73346 49.8908 8.74166C51.1336 8.76217 51.9443 9.55935 51.9484 10.8023C51.9594 14.1742 51.9539 17.5448 51.9539 20.9168C51.9553 27.2272 51.9566 33.5363 51.9566 39.8467C51.9566 41.4903 51.3428 42.1042 49.683 42.1056C46.4482 42.1097 43.2148 42.1083 39.9801 42.1042C39.7463 42.1042 39.5125 42.0742 39.1406 42.0482Z" fill="#231F20"/>
<path d="M51.1282 53.3851C51.8514 53.098 52.3997 52.819 52.9821 52.6604C55.402 52.0041 58.0516 53.6148 58.485 55.9736C58.9581 58.5538 57.245 60.9768 54.7649 61.2366C52.0634 61.5196 49.8444 59.6791 49.7801 57.0128C49.7227 54.6458 49.7719 52.2775 49.7651 49.9093C49.7637 49.4785 49.8868 49.2187 50.3803 49.2146C50.893 49.2119 51.1378 49.4115 51.1323 49.9393C51.12 51.0496 51.1282 52.16 51.1282 53.3851ZM54.1387 54.546C52.788 54.5474 51.8268 55.5073 51.8227 56.861C51.8186 58.0985 52.8768 59.1746 54.1141 59.1896C55.4895 59.206 56.4602 58.2284 56.4643 56.8241C56.4684 55.4635 55.5319 54.546 54.1387 54.546Z" fill="black"/>
<path d="M15.7031 57.6006C15.8125 58.4443 16.2992 58.8942 16.9513 59.1567C17.8099 59.5013 18.6754 59.4028 19.4301 58.8846C19.858 58.5906 20.1752 58.5646 20.5867 58.8668C20.908 59.102 21.2812 59.2674 21.9047 59.6175C21.4426 59.9689 21.1131 60.241 20.7617 60.4817C19.1853 61.5646 17.4558 61.5783 15.8193 60.8304C14.2525 60.1152 13.532 58.7301 13.5197 56.9539C13.506 55.1106 14.3222 53.7556 15.8808 52.9461C17.3369 52.1899 18.9078 52.261 20.3119 53.1649C21.5711 53.9743 22.2314 55.1886 22.2943 56.7146C22.3203 57.3244 22.1166 57.576 21.4781 57.5637C19.817 57.5336 18.1531 57.5528 16.492 57.5555C16.25 57.5569 16.0093 57.5828 15.7031 57.6006ZM15.7523 55.7574C17.1551 55.7574 18.4539 55.7834 19.75 55.741C20.1478 55.7273 20.0302 55.432 19.8593 55.2022C19.225 54.3463 17.9795 53.9867 16.991 54.4064C16.4427 54.6389 16.0025 55.0012 15.7523 55.7574Z" fill="black"/>
<path d="M35.926 61.2733C33.5443 61.5222 31.4731 59.0267 31.5551 56.8375C31.6467 54.4228 33.6141 52.3526 35.9793 52.3594C38.4826 52.3662 40.4856 54.3817 40.4787 56.8854C40.4705 59.452 38.5742 61.2788 35.926 61.2733ZM36.0135 54.2723C34.5233 54.2737 33.4979 55.3539 33.5197 56.8963C33.5416 58.4346 34.5438 59.4752 35.9985 59.4697C37.5365 59.4643 38.5373 58.41 38.5332 56.802C38.5291 55.3198 37.4846 54.271 36.0135 54.2723Z" fill="black"/>
<path d="M26.9924 57.4188C27.5147 56.262 27.9699 55.2529 28.4239 54.2438C28.5073 54.0578 28.5811 53.865 28.6699 53.6804C29.0897 52.8081 29.7158 52.5154 30.6524 52.8081C30.774 52.8463 30.9313 53.1704 30.8848 53.2866C29.9045 55.737 28.8928 58.175 27.8961 60.6185C27.6979 61.1039 27.2864 61.1791 26.8817 61.0889C26.5727 61.0205 26.1489 60.8386 26.0408 60.5912C25.0073 58.2133 24.0297 55.8094 23.033 53.4152C22.8594 52.9968 22.9278 52.7534 23.4391 52.7698C23.7125 52.7793 23.986 52.7848 24.258 52.7684C24.7407 52.7397 24.9936 52.9694 25.1727 53.4097C25.6348 54.5474 26.1379 55.6686 26.6315 56.7926C26.7026 56.9553 26.8078 57.1016 26.9924 57.4188Z" fill="black"/>
<path d="M48.6764 53.5189C47.7412 53.8143 46.9031 54.39 45.7793 53.962C44.8715 53.616 44.032 54.1178 43.7299 55.0572C43.5522 55.6083 43.5043 56.2154 43.4879 56.7993C43.4551 58.0285 43.4483 59.2605 43.4961 60.4884C43.5248 61.2473 43.0983 61.2774 42.5418 61.2665C42.0196 61.2555 41.5233 61.313 41.552 60.5267C41.6149 58.8216 41.6026 57.1151 41.6778 55.4114C41.8199 52.2322 45.0164 51.4036 47.2094 52.3403C47.7563 52.5741 48.2375 52.9597 48.7502 53.2755C48.727 53.3548 48.701 53.4369 48.6764 53.5189Z" fill="black"/>
<path d="M61.9355 57.3464C61.9355 58.3255 61.9191 59.3045 61.9424 60.2835C61.9561 60.851 61.7551 61.1067 61.1549 61.119C59.7098 61.1463 59.7234 61.1669 59.7344 59.7475C59.7508 57.6759 59.748 55.603 59.7453 53.5314C59.7439 53.0433 59.7439 52.6358 60.433 52.6262C61.658 52.6085 61.7523 52.6071 61.8043 53.3947C61.8932 54.7101 61.9301 56.0283 61.9889 57.345C61.9711 57.345 61.9533 57.3464 61.9355 57.3464Z" fill="black"/>
<path d="M60.8057 49.3553C61.6411 49.3621 62.0759 49.7956 62.0649 50.6119C62.054 51.3694 61.4989 51.9547 60.8085 51.9355C60.1604 51.9177 59.5028 51.2532 59.4905 50.6051C59.4755 49.9104 60.0675 49.3484 60.8057 49.3553Z" fill="black"/>
<path d="M12.302 55.7109C12.2855 58.4552 9.60723 61.0874 6.87148 61.272C3.30176 61.5113 0.760156 59.3768 0.136719 56.7364C0.123047 56.679 0 56.3262 0 56.0527V54.8221C0 54.5227 0.166797 53.9292 0.225586 53.7788C0.38418 53.3659 0.533203 52.9474 0.728711 52.5523C2.30371 49.3471 5.90762 48.1411 9.10547 49.7355C9.23809 49.8011 9.3707 49.8681 9.50879 49.9365C9.96953 50.1676 10.5137 49.8353 10.5191 49.3198C10.5273 48.6252 10.5273 47.9319 10.5273 47.2373C10.5273 46.5427 10.5273 45.8494 10.5314 45.1548C10.5369 44.389 10.6586 44.3207 11.4844 44.2865C12.116 44.2605 12.3143 44.5107 12.3115 45.1261C12.2938 48.6539 12.3225 52.1817 12.302 55.7109Z" fill="black"/>
<path d="M9.8446 55.0736C9.85007 57.2054 8.1821 58.8996 6.05749 58.9187C4.02448 58.9378 2.21022 57.1739 2.19928 55.1694C2.18698 52.9802 3.9069 51.26 6.09987 51.2669C8.19303 51.2737 9.83913 52.9474 9.8446 55.0736Z" fill="white"/>
</g>
<defs>
<clipPath id="clip0_87_1792">
<rect width="70" height="70" fill="white"/>
</clipPath>
</defs>
</svg>
